<svg xmlns="http://www.w3.org/2000/svg" viewBox="0 0 32 32"><path d="M16 3C8.832 3 3 8.832 3 16s5.832 13 13 13 13-5.832 13-13c0-2.5-.71-4.828-1.938-6.813l-1.468 1.47A10.858 10.858 0 0 1 27 16c0 6.066-4.934 11-11 11S5 22.066 5 16 9.934 5 16 5c1.945 0 3.758.516 5.344 1.406l1.468-1.468A12.904 12.904 0 0 0 16 3zm11.281.281l-12 12c-.18.18-.281.442-.281.719 0 .55.45 1 1 1 .277 0 .54-.102.719-.281l12-12zM16 7c-4.96 0-9 4.04-9 9s4.04 9 9 9 9-4.04 9-9c0-1.387-.313-2.7-.875-3.875l-1.531 1.531c.261.735.406 1.52.406 2.344 0 3.86-3.14 7-7 7s-7-3.14-7-7 3.14-7 7-7c.824 0 1.61.145 2.344.406l1.531-1.531A8.948 8.948 0 0 0 16 7zm0 4c-2.758 0-5 2.242-5 5s2.242 5 5 5 5-2.242 5-5c0-.234-.031-.46-.063-.688l-2.812 2.813a3.036 3.036 0 0 1-.906.625c-.016.008-.047-.008-.063 0a2.917 2.917 0 0 1-.437.156l-.125.032c-.196.039-.39.062-.594.062-.414 0-.797-.098-1.156-.25C13.77 18.293 13 17.242 13 16c0-.203.023-.398.063-.594.007-.035.023-.09.03-.125.04-.156.095-.289.157-.437.008-.016-.008-.047 0-.063.148-.336.36-.64.625-.906l2.813-2.813A4.997 4.997 0 0 0 16 11z"/></svg>