<svg id="Capa_1" xmlns="http://www.w3.org/2000/svg" viewBox="0 0 128 49.3"><style>.st0{fill:#f7c400}.st1{fill:#303030}.st2{fill:#fff}.st3{fill:none}</style><path class="st1" d="M53.2 6.2l-1.5 1.7v2.6h-2.4V0h2.4v4.7L56 0h2.7l-3.9 4.4 4.2 6.1h-2.8l-3-4.3zM72.5 6.1c0 2.8-1.8 4.5-4.7 4.5-2.9 0-4.7-1.7-4.7-4.5V0h2.4v6.1c0 1.5 1 2.4 2.4 2.4s2.3-.9 2.3-2.4V0h2.4v6.1zM79.4 8.4l-.8 2h-2.4L80.7 0h2.4l4.5 10.4H85l-.8-2h-4.8zm2.4-5.9l-1.7 4.1h3.3l-1.6-4.1zM98.5 8.4v2.1h-6.8V0H94v8.4h4.5zM105 8.4l-.8 2h-2.4L106.3 0h2.4l4.5 10.4h-2.5l-.8-2H105zm2.4-5.9l-1.7 4.1h3.3l-1.6-4.1z"/><g><path class="st1" d="M56.1 29.7v2.1h-6.8V21.3h2.4v8.4h4.4zM69.7 27.4c0 2.8-1.8 4.5-4.7 4.5-2.9 0-4.7-1.7-4.7-4.5v-6.1h2.4v6.1c0 1.5 1 2.4 2.4 2.4s2.3-.9 2.3-2.4v-6.1h2.4v6.1zM84.1 31.7v-7l-2.8 6h-1.5l-2.8-6v7h-2.1V21.3h2.6l3 6.4 3-6.4h2.6v10.4h-2zM95.9 21.3c2.7 0 4.2 1.3 4.2 3.6 0 2.4-1.5 3.8-4.2 3.8h-2.1v3h-2.4V21.3h4.5zm-2.1 5.5h2c1.3 0 2.1-.6 2.1-1.8 0-1.2-.7-1.7-2.1-1.7h-2v3.5zM113.8 27.4c0 2.8-1.8 4.5-4.7 4.5-2.9 0-4.7-1.7-4.7-4.5v-6.1h2.4v6.1c0 1.5 1 2.4 2.4 2.4s2.3-.9 2.3-2.4v-6.1h2.4v6.1zM123.7 28.7H121.3v3h-2.4V21.3h4.5c2.7 0 4.3 1.3 4.3 3.6 0 1.6-.7 2.8-2 3.4l2.2 3.4h-2.7l-1.5-3zm-.3-1.9c1.3 0 2-.6 2-1.8 0-1.2-.7-1.7-2-1.7h-2.2v3.5h2.2z"/></g><g><path class="st1" d="M52.5 42.1c.3.1.6.2.8.5v-.5h.6v2.4h-.4c0-.5-.2-1-.5-1.4-.3-.4-.7-.6-1.3-.6-.4 0-.7.1-1 .3-.2.2-.4.4-.4.7 0 .3.1.5.2.7.2.2.4.3.6.5s.6.3 1 .4c.5.2.9.4 1.1.5.3.2.5.4.7.7.2.3.3.6.3 1s-.1.8-.3 1.1c-.2.3-.5.5-.9.7-.4.2-.7.2-1.2.2-.4 0-.8-.1-1.2-.2-.4-.1-.7-.3-.9-.4l.1.5h-.6l-.1-2.4h.4c0 .4.1.7.3 1 .2.3.4.5.7.7.3.2.6.3 1 .3s.7-.1 1-.3c.3-.2.5-.5.5-.8 0-.3-.1-.5-.2-.6-.2-.2-.3-.3-.6-.4-.2-.1-.5-.2-.9-.4-.5-.2-.9-.4-1.2-.5-.3-.2-.5-.4-.8-.7-.2-.3-.3-.6-.3-1 0-.3.1-.6.2-.9.1-.3.4-.6.7-.8.3-.2.8-.3 1.4-.3.6-.1.9 0 1.2 0zM59.5 42.2h2.3v.5h-2.3v3.8c0 .6.1 1.1.2 1.4.2.3.4.5.8.5.2 0 .5-.1.7-.2s.4-.3.6-.6l.4.3c-.4.5-.7.9-1.1 1-.3.2-.7.3-1 .3-1.3 0-1.9-.8-1.9-2.5v-4h-1.1v-.6c.4 0 .8-.2 1.1-.6.3-.4.5-.8.7-1.3h.5v2zM71.1 47.3c0 .5 0 1-.1 1.3l1-.1v.6h-2c0-.3-.1-.6-.1-.8-.3.3-.7.5-1.1.7-.4.2-.8.3-1.2.3-.8 0-1.3-.2-1.7-.7-.4-.4-.5-1.2-.5-2.3v-2.4c0-.4 0-.7.1-.9h-.9v-.6h.4c.4 0 .6 0 .8-.1.2-.1.3-.2.5-.3h.4v4.2c0 .8.1 1.4.3 1.8.2.4.6.6 1.1.6.3 0 .7-.1 1-.3.3-.2.6-.5.8-.8V44c0-.4 0-.8.1-1h-1v-.6h.4c.4 0 .6 0 .8-.1.2-.1.3-.2.5-.3h.4v5.3zM81.4 47.6c0 .3 0 .6-.1.9l1-.1v.6h-2c0-.2-.1-.5-.1-.7-.3.3-.6.5-1 .7-.4.2-.8.2-1.2.2-.6 0-1.1-.1-1.5-.4-.4-.3-.8-.7-1.1-1.2-.3-.5-.4-1.1-.4-1.8s.2-1.4.5-2c.3-.6.7-1 1.3-1.4.5-.3 1.1-.5 1.8-.5.3 0 .6 0 .9.1.3.1.5.2.7.3v-1.9-.9l-1 .1V39c.5 0 .9 0 1.2-.1.2-.1.4-.2.5-.3h.4v9zm-4.3-4.2c-.4.5-.6 1.3-.6 2.2 0 .9.2 1.7.5 2.2.4.6.9.9 1.5.9.3 0 .6-.1.9-.3.3-.2.6-.4.8-.7V43c-.4-.3-.9-.5-1.5-.5-.7 0-1.2.3-1.6.9zM87.3 47.6c0 .4 0 .7-.1.9h.9v.6h-2.8v-.4c.3 0 .5-.1.6-.2.1-.1.2-.3.2-.5v-4.1c0-.3 0-.6.1-.9l-1 .1v-.6c.5 0 .9 0 1.2-.1.2-.1.4-.2.5-.3h.4v5.5zm0-8.2c.1.2.2.4.2.6 0 .2-.1.4-.2.6-.2.2-.3.2-.5.2s-.4-.1-.5-.2c-.1-.2-.2-.3-.2-.6 0-.2.1-.4.2-.6.2-.2.3-.2.5-.2.1-.1.3 0 .5.2zM96.4 42.5c.5.3.9.7 1.3 1.3.3.5.5 1.1.5 1.8s-.2 1.3-.5 1.9c-.3.6-.7 1-1.2 1.4-.5.3-1.1.5-1.7.5-.6 0-1.2-.1-1.7-.4-.5-.3-.9-.7-1.2-1.2-.3-.5-.5-1.1-.5-1.8s.2-1.4.5-1.9c.3-.6.7-1 1.2-1.4s.9-.7 1.5-.7c.7 0 1.3.2 1.8.5zm-3.3.9c-.3.6-.5 1.2-.5 2.1 0 .6.1 1.1.2 1.6.2.5.4.9.7 1.2.3.3.7.5 1.2.5.7 0 1.2-.3 1.5-.8.3-.5.5-1.2.5-2 0-.9-.2-1.7-.5-2.4s-.9-1-1.5-1c-.7-.1-1.2.2-1.6.8z"/></g><path class="st1" d="M32.6 3.5L36.1 0H0v49.3h35.2L15.8 20.2 32.6 3.5zM14.1 17.6L4.4 3.1h24.2L14.1 17.6zm-2.2 2.2l-8.8 8.8v-22l8.8 13.2zM3.1 46.2V32.8l.1.1 10.4-10.4 15.8 23.8H3.1z"/></svg>